# xmcd
#
# Track frame offsets:
#	150
#	10827
#	18542
#	27172
#	36350
#	44711
#	55607
#	60381
#	67101
#	70956
#	81651
#
# Disc length: 1219 seconds
#
# Revision: 2
# Processed by: cddbd v1.5.2PL0 Copyright (c) Steve Scherf et al.
# Submitted via: EasyCDDAExtractor 12.0.1.1
#
DISCID=9904c10b
DTITLE=Otis Redding - Collection
DYEAR=2000
DGENRE=Oldies
TTITLE0=I Can See
TTITLE1=I've Got Dreams to Remember
TTITLE2=Knock On Wood
TTITLE3=Sad Song
TTITLE4=Send Me Some Lovin'
TTITLE5=Shout
TTITLE6=Sittin' On The Dock Of The Bay
TTITLE7=Snatch A Little Piece
TTITLE8=Tell The Truth
TTITLE9=Under the Bordwalk
TTITLE10=You Send Me
EXTD=
EXTT0=
EXTT1=
EXTT2=
EXTT3=
EXTT4=
EXTT5=
EXTT6=
EXTT7=
EXTT8=
EXTT9=
EXTT10=
PLAYORDER=
